<svg width="17" height="18" viewBox="0 0 17 18" fill="none" xmlns="http://www.w3.org/2000/svg">
  <path d="M8.10083 0C12.0772 9.3855e-05 15.301 3.2238 15.301 7.2002V10.4268L15.5872 10.7129C15.6704 10.7958 15.7752 10.9011 15.8625 11.0225C16.0256 11.2496 16.1315 11.5102 16.176 11.7812L16.2004 12.1973V12.3027C16.2014 12.5653 16.2023 12.888 16.1057 13.1748C15.9266 13.7058 15.5105 14.1255 14.9768 14.3057C14.6904 14.4022 14.3673 14.4014 14.1067 14.4004H11.7004C11.7002 16.3884 10.0889 17.9999 8.10083 18C6.11275 18 4.50046 16.3885 4.50024 14.4004H2.09399C1.83346 14.4014 1.51203 14.4021 1.22583 14.3057C0.693647 14.1261 0.274739 13.7084 0.0949707 13.1758C-0.00183381 12.8888 -0.000746131 12.5653 0.000244141 12.3027V12.1953C2.69493e-05 12.0773 0.000411604 11.9291 0.0246582 11.7812C0.0694829 11.5083 0.176451 11.2489 0.338135 11.0234C0.425823 10.9013 0.531188 10.7959 0.615479 10.7119L0.900635 10.4268V7.2002C0.900635 3.22375 4.12439 1.02997e-05 8.10083 0ZM6.30103 14.4004C6.30124 15.3944 7.10684 16.2002 8.10083 16.2002C9.09477 16.2001 9.90042 15.3943 9.90063 14.4004H6.30103ZM8.10083 1.7998C5.11849 1.79981 2.70044 4.21786 2.70044 7.2002V10.5498C2.70044 10.9491 2.54141 11.3318 2.26001 11.6133L1.90942 11.9639C1.85246 12.0208 1.82406 12.0499 1.80396 12.0713L1.802 12.0732V12.0762C1.80108 12.1057 1.80103 12.1464 1.80103 12.2275C1.80103 12.4108 1.80082 12.5111 1.80493 12.584L1.80591 12.5947L1.81567 12.5957C1.88779 12.5998 1.98717 12.5996 2.16919 12.5996H14.0325C14.2142 12.5996 14.3137 12.5998 14.386 12.5957L14.3948 12.5947L14.3958 12.584C14.3992 12.5224 14.4005 12.4409 14.4006 12.3066V12.2275C14.4006 12.1472 14.4006 12.1063 14.3997 12.0771L14.3987 12.0732L14.3977 12.0713C14.3773 12.0496 14.3483 12.0209 14.2913 11.9639L13.9407 11.6133C13.7677 11.4403 13.6415 11.2292 13.5696 11C13.5244 10.8558 13.5002 10.7037 13.5002 10.5498V7.2002C13.5002 4.21791 11.0831 1.7999 8.10083 1.7998Z" fill="currentColor"/>
</svg>

