<svg viewBox="0 0 22 22" fill="none" xmlns="http://www.w3.org/2000/svg">
  <path fillRule="evenodd" clipRule="evenodd" d="M8.02533 0.190301C8.6379 -0.0634337 9.3262 -0.0634337 9.93877 0.190301C10.2104 0.302805 10.434 0.468039 10.6416 0.649131C10.8387 0.821122 11.0618 1.04415 11.3202 1.30262L11.3391 1.32149L11.3524 1.33484C11.6135 1.59585 11.8382 1.82063 12.0114 2.01938C12.1924 2.22721 12.3571 2.45059 12.4695 2.72176C12.7232 3.33433 12.7232 4.02265 12.4695 4.63522C12.3572 4.90637 12.1925 5.12975 12.0114 5.33761C11.8382 5.53646 11.6133 5.76136 11.3521 6.02252L11.3203 6.05436C11.0618 6.31286 10.8388 6.5359 10.6416 6.7079C10.434 6.88899 10.2104 7.05423 9.93877 7.16673C9.3262 7.42046 8.63788 7.42047 8.02531 7.16673C7.75366 7.05421 7.52999 6.88884 7.32243 6.70778C7.12522 6.53575 6.90221 6.31273 6.64388 6.05438L6.60618 6.01668C6.3477 5.75822 6.12467 5.5352 5.95268 5.33802C5.77158 5.1304 5.60635 4.90683 5.49385 4.63522C5.24011 4.02265 5.24011 3.33433 5.49385 2.72176C5.60636 2.45014 5.77164 2.22653 5.95272 2.01894C6.12472 1.82175 6.34774 1.59874 6.60617 1.34034L6.62501 1.32149L6.64386 1.30265C6.90232 1.04417 7.12535 0.821131 7.32253 0.649134C7.53014 0.468043 7.75372 0.302805 8.02533 0.190301ZM9.30097 1.7301C9.09678 1.64552 8.86732 1.64552 8.66313 1.7301C8.62846 1.74446 8.56161 1.77995 8.41809 1.90513C8.26891 2.03525 8.08614 2.21739 7.80352 2.5C7.52098 2.78255 7.33884 2.96533 7.2087 3.11451C7.08348 3.25807 7.04799 3.32494 7.03365 3.35956C6.94907 3.56375 6.94907 3.79323 7.03365 3.99742C7.04801 4.0321 7.0835 4.09895 7.20868 4.24246C7.33879 4.39163 7.52093 4.57441 7.80355 4.85703C8.086 5.13948 8.2688 5.32164 8.41803 5.45182C8.56167 5.57712 8.62856 5.61262 8.66311 5.62693C8.8673 5.71151 9.09677 5.71151 9.30097 5.62693C9.33564 5.61256 9.40249 5.57708 9.54601 5.4519C9.69518 5.32179 9.87795 5.13965 10.1606 4.85703C10.443 4.57463 10.6249 4.39185 10.7547 4.24287C10.8795 4.0996 10.9151 4.03255 10.9297 3.99742C11.0142 3.79323 11.0142 3.56375 10.9297 3.35956C10.9151 3.32444 10.8795 3.25742 10.7547 3.11415C10.6249 2.96518 10.443 2.78242 10.1606 2.5C9.87796 2.21738 9.69518 2.03525 9.54601 1.90513C9.40249 1.77995 9.33564 1.74446 9.30097 1.7301Z" fill="currentColor"/>
  <path fillRule="evenodd" clipRule="evenodd" d="M2.72178 5.49344C3.33435 5.23971 4.02265 5.23971 4.63522 5.49344C4.90683 5.60595 5.1304 5.77118 5.33802 5.95227C5.5352 6.12426 5.75822 6.34729 6.01668 6.60577L6.04891 6.638C6.30991 6.899 6.53469 7.12377 6.70783 7.32252C6.88889 7.53035 7.0536 7.75373 7.16592 8.0249C7.41965 8.63747 7.41965 9.32579 7.16592 9.93836C7.0536 10.2095 6.88891 10.4329 6.70785 10.6407C6.53462 10.8396 6.30971 11.0645 6.04854 11.3257L6.01666 11.3576C5.7582 11.616 5.53519 11.8391 5.33802 12.011C5.1304 12.1921 4.90683 12.3574 4.63522 12.4699C4.02266 12.7236 3.33433 12.7236 2.72176 12.4699C2.45011 12.3574 2.22644 12.192 2.01888 12.0109C1.82167 11.8389 1.59865 11.6159 1.34031 11.3575L1.32149 11.3387L1.30262 11.3198C1.04415 11.0614 0.821122 10.8383 0.649131 10.6412C0.468039 10.4335 0.302805 10.21 0.190301 9.93836C-0.0634337 9.32579 -0.0634337 8.63747 0.190301 8.0249C0.302811 7.75328 0.468102 7.52966 0.649177 7.32208C0.82118 7.12489 1.0442 6.90188 1.30261 6.64348L1.32146 6.62463L1.34032 6.60577C1.59879 6.34729 1.8218 6.12426 2.01899 5.95227C2.2266 5.77118 2.45017 5.60595 2.72178 5.49344ZM3.99742 7.03324C3.79323 6.94866 3.56378 6.94866 3.35959 7.03324C3.32491 7.0476 3.25806 7.08309 3.11454 7.20827C2.96537 7.33839 2.7826 7.52052 2.49998 7.80314C2.21744 8.08568 2.0353 8.26846 1.90516 8.41765C1.77993 8.56122 1.74444 8.62808 1.7301 8.6627C1.64552 8.86689 1.64552 9.09637 1.7301 9.30056C1.74446 9.33523 1.77995 9.40208 1.90513 9.5456C2.03525 9.69477 2.21738 9.87755 2.5 10.1602C2.78245 10.4426 2.96526 10.6248 3.11448 10.755C3.25812 10.8803 3.32501 10.9158 3.35956 10.9301C3.56375 11.0146 3.79322 11.0146 3.99742 10.9301C4.0321 10.9157 4.09895 10.8802 4.24246 10.755C4.39163 10.6249 4.57441 10.4428 4.85703 10.1602C5.13943 9.87777 5.32136 9.69499 5.45113 9.54602C5.57594 9.40274 5.61156 9.33569 5.62612 9.30056C5.7107 9.09637 5.7107 8.86689 5.62612 8.6627C5.61157 8.62758 5.57597 8.56056 5.45115 8.41729C5.32137 8.26832 5.13944 8.08556 4.85703 7.80314C4.57441 7.52052 4.39163 7.33839 4.24246 7.20827C4.09895 7.08309 4.0321 7.04761 3.99742 7.03324Z" fill="currentColor"/>
  <path fillRule="evenodd" clipRule="evenodd" d="M13.3289 5.49344C13.9414 5.23971 14.6297 5.23971 15.2423 5.49344C15.5139 5.60595 15.7375 5.77118 15.9451 5.95227C16.1423 6.12426 16.3653 6.34728 16.6238 6.60575L16.656 6.638C16.917 6.89899 17.1418 7.12377 17.3149 7.32251C17.496 7.53035 17.6607 7.75373 17.773 8.0249C18.0268 8.63747 18.0268 9.32579 17.773 9.93836C17.6607 10.2095 17.496 10.4329 17.3149 10.6408C17.1417 10.8396 16.9168 11.0645 16.6557 11.3256L16.6237 11.3576C16.3653 11.6161 16.1423 11.8391 15.9451 12.011C15.7375 12.1921 15.5139 12.3574 15.2423 12.4699C14.6298 12.7236 13.9414 12.7236 13.3289 12.4699C13.0572 12.3574 12.8335 12.192 12.626 12.0109C12.4288 11.8389 12.2057 11.6159 11.9474 11.3575L11.9098 11.3199C11.6513 11.0614 11.4282 10.8383 11.2562 10.6412C11.0751 10.4335 10.9099 10.21 10.7974 9.93836C10.5437 9.32579 10.5437 8.63747 10.7974 8.0249C10.9099 7.75328 11.0752 7.52967 11.2563 7.32208C11.4283 7.1249 11.6513 6.90189 11.9097 6.64349L11.9474 6.60578C12.2059 6.3473 12.4289 6.12427 12.6261 5.95227C12.8337 5.77118 13.0573 5.60595 13.3289 5.49344ZM14.6045 7.03324C14.4003 6.94866 14.1709 6.94866 13.9667 7.03324C13.932 7.0476 13.8652 7.08309 13.7216 7.20827C13.5725 7.33839 13.3897 7.52053 13.1071 7.80314C12.8245 8.08569 12.6424 8.26847 12.5123 8.41765C12.387 8.56122 12.3515 8.62808 12.3372 8.6627C12.2526 8.86689 12.2526 9.09637 12.3372 9.30056C12.3516 9.33524 12.387 9.40209 12.5122 9.5456C12.6423 9.69477 12.8245 9.87755 13.1071 10.1602C13.3895 10.4426 13.5724 10.6248 13.7216 10.755C13.8652 10.8803 13.9321 10.9158 13.9667 10.9301C14.1708 11.0146 14.4003 11.0146 14.6045 10.9301C14.6392 10.9157 14.706 10.8802 14.8496 10.755C14.9987 10.6249 15.1815 10.4428 15.4641 10.1602C15.7465 9.87777 15.9285 9.695 16.0582 9.54602C16.183 9.40273 16.2187 9.33569 16.2332 9.30056C16.3178 9.09637 16.3178 8.86689 16.2332 8.6627C16.2187 8.62759 16.1831 8.56057 16.0582 8.41729C15.9285 8.26831 15.7465 8.08555 15.4641 7.80314C15.1815 7.52052 14.9987 7.33839 14.8496 7.20827C14.706 7.08309 14.6392 7.0476 14.6045 7.03324Z" fill="currentColor"/>
  <path fillRule="evenodd" clipRule="evenodd" d="M8.02533 10.797C8.6379 10.5433 9.3262 10.5433 9.93877 10.797C10.2104 10.9095 10.434 11.0747 10.6416 11.2558C10.8388 11.4278 11.0618 11.6509 11.3203 11.9094L11.3524 11.9415C11.6134 12.2025 11.8382 12.4273 12.0114 12.6261C12.1924 12.8339 12.3571 13.0573 12.4695 13.3284C12.7232 13.941 12.7232 14.6293 12.4695 15.2419C12.3572 15.5131 12.1925 15.7364 12.0114 15.9443C11.8382 16.1431 11.6133 16.368 11.3521 16.6292L11.3202 16.6611C11.0618 16.9196 10.8387 17.1426 10.6416 17.3146C10.434 17.4957 10.2104 17.6609 9.93877 17.7734C9.32621 18.0271 8.63788 18.0272 8.02531 17.7734C7.75366 17.6609 7.52999 17.4955 7.32243 17.3145C7.12522 17.1424 6.9022 16.9194 6.64387 16.6611L6.62504 16.6422L6.60616 16.6233C6.34769 16.3649 6.12467 16.1419 5.95268 15.9447C5.77159 15.7371 5.60635 15.5135 5.49385 15.2419C5.24011 14.6293 5.24011 13.941 5.49385 13.3284C5.60636 13.0568 5.77165 12.8332 5.95272 12.6256C6.12474 12.4284 6.34778 12.2054 6.60621 11.947L6.64383 11.9094C6.90231 11.6509 7.12534 11.4278 7.32253 11.2558C7.53015 11.0747 7.75372 10.9095 8.02533 10.797ZM9.30097 12.3368C9.09678 12.2522 8.86732 12.2522 8.66313 12.3368C8.62846 12.3512 8.56161 12.3866 8.41809 12.5118C8.26892 12.6419 8.08615 12.8241 7.80353 13.1067C7.52098 13.3892 7.33884 13.572 7.20871 13.7212C7.08348 13.8648 7.04799 13.9316 7.03365 13.9663C6.94907 14.1704 6.94907 14.3999 7.03365 14.6041C7.04801 14.6388 7.08349 14.7056 7.20868 14.8492C7.33879 14.9983 7.52093 15.1811 7.80355 15.4637C8.086 15.7462 8.2688 15.9283 8.41803 16.0585C8.56167 16.1838 8.62856 16.2193 8.66311 16.2336C8.8673 16.3182 9.09677 16.3182 9.30097 16.2336C9.33564 16.2193 9.40249 16.1838 9.54601 16.0586C9.69518 15.9285 9.87795 15.7463 10.1606 15.4637C10.443 15.1813 10.6249 14.9985 10.7547 14.8496C10.8795 14.7063 10.9151 14.6392 10.9297 14.6041C11.0142 14.3999 11.0142 14.1704 10.9297 13.9663C10.9151 13.9311 10.8795 13.8641 10.7547 13.7208C10.6249 13.5719 10.443 13.3891 10.1606 13.1067C9.87795 12.8241 9.69518 12.6419 9.54601 12.5118C9.40249 12.3866 9.33564 12.3512 9.30097 12.3368Z" fill="currentColor"/>
</svg>

