<svg width="24" height="24" viewBox="0 0 24 24" fill="none" xmlns="http://www.w3.org/2000/svg">
<path d="M17.8389 3C18.3659 2.99998 18.8209 2.99967 19.1953 3.03027C19.5905 3.06261 19.9832 3.13448 20.3613 3.32715C20.9246 3.61418 21.3847 4.07225 21.6729 4.6377C21.8655 5.01581 21.9374 5.40888 21.9697 5.80371C22.0003 6.17785 22 6.63219 22 7.1582V14.8418C22 15.3679 22.0003 15.8223 21.9697 16.1963C21.9374 16.5911 21.8655 16.9843 21.6729 17.3623C21.3854 17.9263 20.9266 18.3852 20.3623 18.6729C19.9842 18.8655 19.5911 18.9374 19.1963 18.9697C18.8222 19.0003 18.3678 19 17.8418 19H9.12207C8.66631 19 8.57748 19.0048 8.50098 19.0205C8.4117 19.0388 8.3262 19.069 8.24707 19.1094C8.17945 19.1439 8.10834 19.1948 7.75977 19.4736L7.74023 19.4883L6.18945 20.7285C5.80311 21.0376 5.4611 21.312 5.1709 21.5039C4.88759 21.6912 4.48638 21.9194 4.00195 21.9199C3.3928 21.9205 2.81641 21.6429 2.43652 21.167C2.13457 20.7885 2.06199 20.3333 2.03125 19.9951C1.99979 19.6488 1.99997 19.2104 2 18.7158V7.16211C1.99998 6.63494 1.99967 6.17935 2.03027 5.80469C2.06258 5.40941 2.13437 5.01605 2.32715 4.6377C2.61475 4.07333 3.07333 3.61475 3.6377 3.32715C4.01605 3.13437 4.40941 3.06258 4.80469 3.03027C5.17935 2.99967 5.63494 2.99998 6.16211 3H17.8389ZM6.2002 5C5.62365 5 5.25123 5.00126 4.96777 5.02441C4.69597 5.04662 4.59528 5.08421 4.5459 5.10938C4.35779 5.20524 4.20524 5.35779 4.10938 5.5459C4.08421 5.59528 4.04662 5.69597 4.02441 5.96777C4.00126 6.25123 4 6.62365 4 7.2002V18.6709C4 19.2235 4.00125 19.569 4.02344 19.8135C4.02499 19.8306 4.0267 19.8468 4.02832 19.8613C4.04064 19.8535 4.05407 19.8444 4.06836 19.835C4.27317 19.6995 4.54336 19.4846 4.97461 19.1396L6.49902 17.9199L6.51465 17.9082L6.51758 17.9053C6.53303 17.8929 6.54823 17.8804 6.56348 17.8682C6.82806 17.6561 7.06512 17.467 7.33691 17.3281C7.57854 17.2047 7.83511 17.1156 8.09863 17.0615C8.39979 16.9997 8.70511 16.9997 9.05176 17H17.8027C18.3782 17 18.7503 16.9997 19.0332 16.9766C19.3042 16.9544 19.4048 16.9167 19.4541 16.8916C19.6421 16.7958 19.7957 16.6424 19.8916 16.4541C19.9167 16.4048 19.9544 16.3042 19.9766 16.0332C19.9997 15.7505 20 15.3791 20 14.8037V7.19727C20 6.62182 19.9997 6.24974 19.9766 5.9668C19.9544 5.69594 19.9167 5.5952 19.8916 5.5459C19.7963 5.35882 19.6424 5.2058 19.4531 5.10938C19.4036 5.08413 19.3032 5.04561 19.0322 5.02344C18.7491 5.00029 18.3764 5 17.7998 5H6.2002ZM8.00195 10C8.27122 10 8.52961 10.1082 8.71777 10.3008C8.90593 10.4934 9.00824 10.7542 9.00195 11.0234V11.0254C8.99575 11.2906 8.88428 11.5425 8.69238 11.7256C8.50051 11.9086 8.24358 12.0082 7.97852 12.002H7.97656C7.43375 11.989 7 11.5449 7 11.002V11C7 10.4477 7.44772 10 8 10H8.00195ZM12.002 10C12.2712 10 12.5296 10.1082 12.7178 10.3008C12.9059 10.4934 13.0082 10.7542 13.002 11.0234V11.0254C12.9958 11.2906 12.8843 11.5425 12.6924 11.7256C12.5005 11.9086 12.2436 12.0082 11.9785 12.002H11.9766C11.4338 11.989 11 11.5449 11 11.002V11C11 10.4477 11.4477 10 12 10H12.002ZM16.002 10C16.2712 10 16.5296 10.1082 16.7178 10.3008C16.9059 10.4934 17.0082 10.7542 17.002 11.0234V11.0254C16.9958 11.2906 16.8843 11.5425 16.6924 11.7256C16.5005 11.9086 16.2436 12.0082 15.9785 12.002H15.9766C15.4338 11.989 15 11.5449 15 11.002V11C15 10.4477 15.4477 10 16 10H16.002Z" fill="#1A1A1A"/>
</svg>
