<svg width="20" height="19" viewBox="0 0 20 19" fill="none" xmlns="http://www.w3.org/2000/svg">
  <path d="M5 8C5 7.44772 5.44772 7 6 7H6.002C6.27127 7 6.52916 7.10859 6.71732 7.3012C6.90548 7.49381 7.00802 7.75417 7.00173 8.02336L7.00168 8.02536C6.99549 8.2906 6.88414 8.54251 6.69215 8.72563C6.50016 8.90874 6.24327 9.00806 5.97804 9.00172L5.97608 9.00167C5.43327 8.98868 5 8.54492 5 8.00196V8Z" fill="#1A1A1A"/>
  <path d="M9 8C9 7.44772 9.44772 7 10 7H10.002C10.2713 7 10.5292 7.10859 10.7173 7.3012C10.9055 7.49381 11.008 7.75417 11.0017 8.02336L11.0017 8.02536C10.9955 8.2906 10.8841 8.54251 10.6921 8.72563C10.5002 8.90874 10.2433 9.00806 9.97804 9.00172L9.97608 9.00167C9.43327 8.98868 9 8.54492 9 8.00196V8Z" fill="#1A1A1A"/>
  <path d="M13 8C13 7.44772 13.4477 7 14 7H14.002C14.2713 7 14.5292 7.10859 14.7173 7.3012C14.9055 7.49381 15.008 7.75417 15.0017 8.02336L15.0017 8.02536C14.9955 8.2906 14.8841 8.54251 14.6921 8.72563C14.5002 8.90874 14.2433 9.00806 13.978 9.00172L13.9761 9.00167C13.4333 8.98868 13 8.54492 13 8.00196V8Z" fill="#1A1A1A"/>
  <path fillRule="evenodd" clipRule="evenodd" d="M4.16168 8.60056e-07H15.8388C16.3659 -1.70213e-05 16.8205 -3.25181e-05 17.1949 0.0305751C17.5902 0.0628916 17.9831 0.134244 18.3614 0.326982C18.9248 0.614051 19.3851 1.07224 19.6732 1.63781C19.8659 2.016 19.9372 2.40906 19.9695 2.80397C20 3.17815 20 3.6323 20 4.15839V11.8421C20 12.3682 20 12.8222 19.9695 13.1962C19.9372 13.591 19.8659 13.9838 19.6732 14.3619C19.3857 14.9262 18.9266 15.3855 18.362 15.6732C17.9839 15.8659 17.5909 15.9372 17.196 15.9695C16.8218 16 16.3677 16 15.8416 16H7.12207C6.66611 16 6.57738 16.0047 6.50085 16.0204C6.41146 16.0388 6.32585 16.0688 6.24664 16.1093C6.17901 16.1438 6.10813 16.1945 5.75948 16.4734L5.74376 16.4858L5.74047 16.4883L4.18975 17.7289C3.8034 18.038 3.46126 18.3117 3.17105 18.5036C2.88772 18.6909 2.48663 18.9189 2.00206 18.9195C1.39287 18.9201 0.816826 18.6431 0.436918 18.1672C0.134659 17.7885 0.0621401 17.333 0.031411 16.9947C-5.0921e-05 16.6484 -2.62429e-05 16.2104 1.65212e-06 15.7157L2.36738e-06 4.16168C-1.5514e-05 3.63451 -3.0892e-05 3.17965 0.0305707 2.80499C0.0628635 2.40962 0.13416 2.01625 0.326984 1.63781C0.614604 1.07332 1.07332 0.614602 1.63781 0.326982C2.01625 0.134158 2.40962 0.0628619 2.80499 0.0305692C3.17965 -3.23988e-05 3.63451 -1.70213e-05 4.16168 8.60056e-07ZM2.9678 2.02393C2.69595 2.04614 2.59518 2.08383 2.54579 2.109C2.35763 2.20487 2.20487 2.35763 2.109 2.54579C2.08383 2.59517 2.04614 2.69595 2.02393 2.9678C2.00078 3.25126 2 3.62365 2 4.2002V15.6712C2 16.224 2.001 16.5693 2.02321 16.8138C2.02476 16.8309 2.02637 16.8466 2.02799 16.8611C2.04036 16.8533 2.0537 16.8447 2.06805 16.8352C2.27295 16.6998 2.54327 16.4848 2.97492 16.1395L4.49888 14.9203L4.5146 14.908L4.51782 14.9055C4.5333 14.8931 4.54868 14.8808 4.56396 14.8685C4.82855 14.6565 5.06493 14.4671 5.33673 14.3282C5.57847 14.2047 5.83511 14.1154 6.09876 14.0613C6.39992 13.9994 6.70494 13.9997 7.05158 14C7.07489 14 7.09838 14 7.12207 14H15.8031C16.3785 14 16.7502 13.9992 17.033 13.9761C17.3043 13.9539 17.4048 13.9163 17.454 13.8912C17.642 13.7954 17.7953 13.6422 17.8912 13.4539C17.9164 13.4046 17.954 13.3041 17.9761 13.0332C17.9992 12.7505 18 12.379 18 11.8036V4.19691C18 3.62146 17.9992 3.2498 17.9761 2.96686C17.9539 2.69554 17.9163 2.59501 17.8912 2.54579C17.7959 2.35871 17.6427 2.20542 17.4534 2.109C17.4039 2.08375 17.3032 2.04611 17.0319 2.02393C16.7488 2.00078 16.3768 2 15.8002 2H4.2002C3.62365 2 3.25126 2.00078 2.9678 2.02393Z" fill="#1A1A1A"/>
</svg>

