<svg width="14" height="14" viewBox="0 0 14 14" fill="none" xmlns="http://www.w3.org/2000/svg">
  <path d="M7.00699 0C5.7296 0 4.55012 0.317016 3.46853 0.951049C2.41492 1.57576 1.57576 2.41492 0.951049 3.46853C0.317016 4.55012 0 5.7296 0 7.00699C0 8.27506 0.317016 9.44988 0.951049 10.5315C1.57576 11.5851 2.41492 12.4242 3.46853 13.049C4.55012 13.683 5.72494 14 6.99301 14C8.2704 14 9.44988 13.683 10.5315 13.049C11.5851 12.4242 12.4242 11.5851 13.049 10.5315C13.683 9.44988 14 8.27506 14 7.00699C14 5.7296 13.683 4.55012 13.049 3.46853C12.4242 2.41492 11.5851 1.57576 10.5315 0.951049C9.44988 0.317016 8.2704 0 6.99301 0H7.00699ZM10.5315 9.04895C10.4942 9.12354 10.4429 9.18415 10.3776 9.23077C10.3217 9.27739 10.2611 9.31469 10.1958 9.34266C10.0932 9.38928 9.98601 9.41259 9.87413 9.41259C9.77156 9.40326 9.67366 9.36597 9.58042 9.3007L7.70629 8.23776V10.3776C7.70629 10.4615 7.68765 10.5501 7.65035 10.6434C7.62238 10.7273 7.57576 10.8019 7.51049 10.8671C7.44522 10.9324 7.37063 10.9883 7.28671 11.035C7.2028 11.0723 7.10956 11.0909 7.00699 11.0909C6.90443 11.0909 6.80653 11.0723 6.71329 11.035C6.62937 10.9883 6.55478 10.9371 6.48951 10.8811C6.43357 10.8159 6.38695 10.7413 6.34965 10.6573C6.31235 10.5734 6.29371 10.4802 6.29371 10.3776V8.23776L4.43357 9.3007C4.34965 9.35664 4.26107 9.38928 4.16783 9.3986C4.08392 9.40793 3.99068 9.40326 3.88811 9.38462C3.79487 9.35664 3.71096 9.31469 3.63636 9.25874C3.5711 9.2028 3.51515 9.13753 3.46853 9.06294C3.42191 8.97902 3.38928 8.91375 3.37063 8.86713C3.36131 8.81119 3.35664 8.75058 3.35664 8.68532C3.35664 8.55478 3.38462 8.43823 3.44056 8.33566C3.50583 8.2331 3.59441 8.14452 3.70629 8.06993L5.58042 7.00699L3.70629 5.94406C3.64103 5.89744 3.57576 5.83217 3.51049 5.74825C3.44522 5.66434 3.40326 5.58042 3.38462 5.4965C3.36597 5.40326 3.36131 5.31469 3.37063 5.23077C3.37995 5.14685 3.41259 5.05361 3.46853 4.95105C3.52448 4.83916 3.59907 4.75524 3.69231 4.6993C3.79487 4.64336 3.91608 4.61538 4.05594 4.61538C4.13054 4.61538 4.1958 4.62471 4.25175 4.64336C4.31702 4.662 4.3683 4.68532 4.40559 4.71329L6.29371 5.79021V3.62238C6.29371 3.51981 6.31235 3.42657 6.34965 3.34266C6.38695 3.25874 6.43823 3.18415 6.5035 3.11888C6.56876 3.05361 6.64336 3.00233 6.72727 2.96503C6.81119 2.92774 6.89977 2.90909 6.99301 2.90909C7.09557 2.90909 7.18415 2.92774 7.25874 2.96503C7.34266 3.00233 7.41725 3.05828 7.48252 3.13287C7.55711 3.19814 7.60839 3.27273 7.63636 3.35664C7.67366 3.44056 7.69231 3.52914 7.69231 3.62238V5.77622L9.55245 4.6993C9.63636 4.65268 9.72494 4.62471 9.81818 4.61538C9.92075 4.60606 10.014 4.61072 10.0979 4.62937C10.1911 4.64802 10.2751 4.68998 10.3497 4.75524C10.4336 4.82051 10.4988 4.8951 10.5455 4.97902C10.5921 5.06294 10.62 5.14685 10.6294 5.23077C10.6387 5.31469 10.6294 5.40326 10.6014 5.4965C10.5734 5.58974 10.5315 5.67832 10.4755 5.76224C10.4289 5.83683 10.3636 5.89744 10.2797 5.94406L8.41958 7.00699L10.2937 8.06993L10.5035 8.25175C10.5501 8.31702 10.5874 8.40093 10.6154 8.5035C10.6434 8.59674 10.6527 8.68998 10.6434 8.78322C10.634 8.87646 10.5967 8.96504 10.5315 9.04895Z" 
  fill="#2563eb"/>
</svg>

