<svg width="20" height="19" viewBox="0 0 20 19" fill="none" xmlns="http://www.w3.org/2000/svg">
  <path d="M10.75 4.75002V8.82533L14.1362 10.8569C14.3068 10.9593 14.4297 11.1253 14.4779 11.3184C14.526 11.5114 14.4955 11.7157 14.3931 11.8863C14.2907 12.0568 14.1247 12.1797 13.9316 12.2279C13.7386 12.2761 13.5343 12.2456 13.3637 12.1431L9.61374 9.89314C9.50275 9.82646 9.41091 9.73218 9.34717 9.61948C9.28343 9.50678 9.24995 9.37949 9.24999 9.25002V4.75002C9.24999 4.55111 9.329 4.36034 9.46966 4.21969C9.61031 4.07904 9.80107 4.00002 9.99999 4.00002C10.1989 4.00002 10.3897 4.07904 10.5303 4.21969C10.671 4.36034 10.75 4.55111 10.75 4.75002ZM9.99999 0.250028C8.81686 0.247081 7.64489 0.478809 6.55192 0.931802C5.45894 1.3848 4.46666 2.05006 3.6325 2.88909C2.95093 3.57909 2.34531 4.24283 1.75 4.93752V3.25002C1.75 3.05111 1.67098 2.86035 1.53033 2.71969C1.38968 2.57904 1.19891 2.50002 0.999999 2.50002C0.801087 2.50002 0.610322 2.57904 0.46967 2.71969C0.329017 2.86035 0.25 3.05111 0.25 3.25002V7.00002C0.25 7.19893 0.329017 7.3897 0.46967 7.53035C0.610322 7.671 0.801087 7.75002 0.999999 7.75002H4.74999C4.94891 7.75002 5.13967 7.671 5.28032 7.53035C5.42097 7.3897 5.49999 7.19893 5.49999 7.00002C5.49999 6.80111 5.42097 6.61034 5.28032 6.46969C5.13967 6.32904 4.94891 6.25002 4.74999 6.25002H2.59375C3.26406 5.46065 3.93156 4.71721 4.69281 3.94659C5.73517 2.90423 7.06159 2.19216 8.50633 1.89935C9.95108 1.60654 11.4501 1.74597 12.816 2.30023C14.182 2.85449 15.3543 3.79899 16.1865 5.01572C17.0188 6.23244 17.474 7.66744 17.4953 9.14141C17.5166 10.6154 17.1031 12.0629 16.3064 13.3032C15.5097 14.5435 14.3652 15.5215 13.0159 16.1151C11.6665 16.7086 10.1722 16.8913 8.71958 16.6404C7.26697 16.3896 5.92051 15.7161 4.84843 14.7044C4.77678 14.6367 4.69249 14.5837 4.60038 14.5486C4.50827 14.5135 4.41014 14.4968 4.31159 14.4996C4.21305 14.5024 4.11601 14.5245 4.02604 14.5648C3.93606 14.6051 3.85489 14.6627 3.78718 14.7344C3.71947 14.806 3.66653 14.8903 3.63139 14.9824C3.59626 15.0745 3.5796 15.1727 3.58239 15.2712C3.58518 15.3698 3.60734 15.4668 3.64763 15.5568C3.68792 15.6468 3.74553 15.7279 3.81718 15.7956C4.88541 16.8037 6.18413 17.535 7.59999 17.9257C9.01585 18.3164 10.5058 18.3547 11.9399 18.0372C13.3739 17.7196 14.7084 17.0559 15.827 16.104C16.9456 15.1521 17.8142 13.9409 18.357 12.5761C18.8998 11.2113 19.1003 9.73438 18.9411 8.27425C18.7818 6.81413 18.2676 5.41517 17.4434 4.19946C16.6192 2.98375 15.5099 1.98825 14.2125 1.29982C12.915 0.6114 11.4688 0.250984 9.99999 0.250028Z" fill="#1A1A1A" stroke="#1A1A1A" strokeWidth="0.5"/>
</svg>

