<svg width="28" height="29" viewBox="0 0 28 29" fill="none" xmlns="http://www.w3.org/2000/svg">
<path d="M12.0001 8C15.9765 8.00009 19.2003 11.2238 19.2003 15.2002V18.4268L19.4865 18.7129C19.5697 18.7958 19.6745 18.9011 19.7618 19.0225C19.9249 19.2496 20.0308 19.5102 20.0753 19.7812L20.0997 20.1973V20.3027C20.1007 20.5653 20.1016 20.888 20.005 21.1748C19.8258 21.7058 19.4098 22.1255 18.8761 22.3057C18.5897 22.4022 18.2665 22.4014 18.006 22.4004H15.5997C15.5995 24.3884 13.9882 25.9999 12.0001 26C10.012 26 8.39975 24.3885 8.39954 22.4004H5.99329C5.73275 22.4014 5.41132 22.4021 5.12512 22.3057C4.59294 22.1261 4.17403 21.7084 3.99426 21.1758C3.89746 20.8888 3.89855 20.5653 3.89954 20.3027V20.1953C3.89932 20.0773 3.8997 19.9291 3.92395 19.7812C3.96877 19.5083 4.07574 19.2489 4.23743 19.0234C4.32512 18.9013 4.43048 18.7959 4.51477 18.7119L4.79993 18.4268V15.2002C4.79993 11.2237 8.02368 8.00001 12.0001 8ZM10.2003 22.4004C10.2005 23.3944 11.0061 24.2002 12.0001 24.2002C12.9941 24.2001 13.7997 23.3943 13.7999 22.4004H10.2003ZM12.0001 9.7998C9.01778 9.79981 6.59973 12.2179 6.59973 15.2002V18.5498C6.59973 18.9491 6.44071 19.3318 6.1593 19.6133L5.80872 19.9639C5.75175 20.0208 5.72335 20.0499 5.70325 20.0713L5.70129 20.0732V20.0762C5.70037 20.1057 5.70032 20.1464 5.70032 20.2275C5.70032 20.4108 5.70012 20.5111 5.70422 20.584L5.7052 20.5947L5.71497 20.5957C5.78708 20.5998 5.88646 20.5996 6.06848 20.5996H17.9318C18.1135 20.5996 18.213 20.5998 18.2853 20.5957L18.2941 20.5947L18.295 20.584C18.2985 20.5224 18.2998 20.4409 18.2999 20.3066V20.2275C18.2999 20.1472 18.2999 20.1063 18.299 20.0771L18.298 20.0732L18.297 20.0713C18.2766 20.0496 18.2476 20.0209 18.1906 19.9639L17.84 19.6133C17.667 19.4403 17.5408 19.2292 17.4689 19C17.4237 18.8558 17.3995 18.7037 17.3995 18.5498V15.2002C17.3995 12.2179 14.9824 9.7999 12.0001 9.7998Z" fill="#1A1A1A"/>
<rect x="12" width="16" height="16" rx="8" fill="#EE6E27"/>
<path d="M19.7202 12.6193C19.1861 12.6193 18.706 12.517 18.2798 12.3125C17.8565 12.1051 17.5185 11.821 17.2656 11.4602C17.0128 11.0994 16.8778 10.6875 16.8608 10.2244H18.1392C18.1705 10.5994 18.3366 10.9077 18.6378 11.1491C18.9389 11.3906 19.2997 11.5114 19.7202 11.5114C20.0554 11.5114 20.3523 11.4347 20.6108 11.2812C20.8722 11.125 21.0767 10.9105 21.2244 10.6378C21.375 10.3651 21.4503 10.054 21.4503 9.70455C21.4503 9.34943 21.3736 9.03267 21.2202 8.75426C21.0668 8.47585 20.8551 8.2571 20.5852 8.09801C20.3182 7.93892 20.0114 7.85795 19.6648 7.85511C19.4006 7.85511 19.1349 7.90057 18.8679 7.99148C18.6009 8.08239 18.3849 8.2017 18.2202 8.34943L17.0142 8.17045L17.5043 3.77273H22.3026V4.90199H18.5994L18.3224 7.34375H18.3736C18.544 7.17898 18.7699 7.04119 19.0511 6.9304C19.3352 6.8196 19.6392 6.7642 19.9631 6.7642C20.4943 6.7642 20.9673 6.89062 21.3821 7.14347C21.7997 7.39631 22.1278 7.74148 22.3665 8.17898C22.608 8.61364 22.7273 9.11364 22.7244 9.67898C22.7273 10.2443 22.5994 10.7486 22.3409 11.1918C22.0852 11.6349 21.7301 11.9844 21.2756 12.2401C20.8239 12.4929 20.3054 12.6193 19.7202 12.6193Z" fill="white"/>
</svg>
