<svg width="19" height="19" viewBox="0 0 19 19" fill="none" xmlns="http://www.w3.org/2000/svg">
  <path d="M18.1 1.59998V11.35C18.1 11.7478 17.9419 12.1293 17.6606 12.4106C17.3793 12.6919 16.9978 12.85 16.6 12.85H6.41029L7.3806 13.8194C7.45028 13.889 7.50556 13.9718 7.54327 14.0628C7.58098 14.1538 7.60039 14.2514 7.60039 14.35C7.60039 14.4485 7.58098 14.5461 7.54327 14.6371C7.50556 14.7282 7.45028 14.8109 7.3806 14.8806C7.31092 14.9503 7.22819 15.0056 7.13715 15.0433C7.0461 15.081 6.94852 15.1004 6.84998 15.1004C6.75143 15.1004 6.65385 15.081 6.5628 15.0433C6.47176 15.0056 6.38903 14.9503 6.31935 14.8806L4.06935 12.6306C3.99962 12.5609 3.9443 12.4782 3.90656 12.3872C3.86881 12.2961 3.84939 12.1985 3.84939 12.1C3.84939 12.0014 3.86881 11.9038 3.90656 11.8128C3.9443 11.7217 3.99962 11.639 4.06935 11.5694L6.31935 9.31935C6.46008 9.17862 6.65095 9.09956 6.84998 9.09956C7.049 9.09956 7.23987 9.17862 7.3806 9.31935C7.52133 9.46008 7.60039 9.65095 7.60039 9.84998C7.60039 10.049 7.52133 10.2399 7.3806 10.3806L6.41029 11.35H16.6V1.59998H6.09998V2.34998C6.09998 2.54889 6.02096 2.73965 5.88031 2.88031C5.73965 3.02096 5.54889 3.09998 5.34998 3.09998C5.15106 3.09998 4.9603 3.02096 4.81965 2.88031C4.67899 2.73965 4.59998 2.54889 4.59998 2.34998V1.59998C4.59998 1.20215 4.75801 0.82062 5.03932 0.539315C5.32062 0.258011 5.70215 0.0999756 6.09998 0.0999756H16.6C16.9978 0.0999756 17.3793 0.258011 17.6606 0.539315C17.9419 0.82062 18.1 1.20215 18.1 1.59998ZM12.85 15.1C12.6511 15.1 12.4603 15.179 12.3196 15.3196C12.179 15.4603 12.1 15.6511 12.1 15.85V16.6H1.59998V6.84998H11.7897L10.8194 7.81935C10.6786 7.96008 10.5996 8.15095 10.5996 8.34998C10.5996 8.549 10.6786 8.73987 10.8194 8.8806C10.9601 9.02133 11.151 9.10039 11.35 9.10039C11.549 9.10039 11.7399 9.02133 11.8806 8.8806L14.1306 6.6306C14.2003 6.56095 14.2557 6.47823 14.2934 6.38718C14.3311 6.29613 14.3506 6.19854 14.3506 6.09998C14.3506 6.00141 14.3311 5.90382 14.2934 5.81277C14.2557 5.72172 14.2003 5.63901 14.1306 5.56935L11.8806 3.31935C11.7399 3.17862 11.549 3.09956 11.35 3.09956C11.151 3.09956 10.9601 3.17862 10.8194 3.31935C10.6786 3.46008 10.5996 3.65095 10.5996 3.84998C10.5996 4.049 10.6786 4.23987 10.8194 4.3806L11.7897 5.34998H1.59998C1.20215 5.34998 0.82062 5.50801 0.539315 5.78932C0.258011 6.07062 0.0999756 6.45215 0.0999756 6.84998V16.6C0.0999756 16.9978 0.258011 17.3793 0.539315 17.6606C0.82062 17.9419 1.20215 18.1 1.59998 18.1H12.1C12.4978 18.1 12.8793 17.9419 13.1606 17.6606C13.4419 17.3793 13.6 16.9978 13.6 16.6V15.85C13.6 15.6511 13.521 15.4603 13.3803 15.3196C13.2397 15.179 13.0489 15.1 12.85 15.1Z" fill="#1A1A1A" stroke="#1A1A1A" strokeWidth="0.2"/>
</svg>

