<svg width="24" height="24" viewBox="0 0 24 24" fill="none" xmlns="http://www.w3.org/2000/svg">
<path d="M13.1279 7.50002V11.5753L16.5142 13.6069C16.6847 13.7093 16.8076 13.8753 16.8558 14.0684C16.904 14.2614 16.8735 14.4657 16.771 14.6363C16.6686 14.8068 16.5026 14.9297 16.3095 14.9779C16.1165 15.0261 15.9122 14.9956 15.7417 14.8931L11.9917 12.6431C11.8807 12.5765 11.7888 12.4822 11.7251 12.3695C11.6614 12.2568 11.6279 12.1295 11.6279 12V7.50002C11.6279 7.30111 11.7069 7.11034 11.8476 6.96969C11.9882 6.82904 12.179 6.75002 12.3779 6.75002C12.5768 6.75002 12.7676 6.82904 12.9082 6.96969C13.0489 7.11034 13.1279 7.30111 13.1279 7.50002ZM12.3779 3.00003C11.1948 2.99708 10.0228 3.22881 8.92985 3.6818C7.83687 4.1348 6.84459 4.80006 6.01042 5.63909C5.32886 6.32909 4.72324 6.99283 4.12793 7.68752V6.00002C4.12793 5.80111 4.04891 5.61035 3.90826 5.46969C3.76761 5.32904 3.57684 5.25002 3.37793 5.25002C3.17902 5.25002 2.98825 5.32904 2.8476 5.46969C2.70695 5.61035 2.62793 5.80111 2.62793 6.00002V9.75002C2.62793 9.94893 2.70695 10.1397 2.8476 10.2803C2.98825 10.421 3.17902 10.5 3.37793 10.5H7.12792C7.32684 10.5 7.5176 10.421 7.65825 10.2803C7.7989 10.1397 7.87792 9.94893 7.87792 9.75002C7.87792 9.55111 7.7989 9.36034 7.65825 9.21969C7.5176 9.07904 7.32684 9.00002 7.12792 9.00002H4.97168C5.64199 8.21065 6.30949 7.46721 7.07074 6.69659C8.1131 5.65423 9.43952 4.94216 10.8843 4.64935C12.329 4.35654 13.828 4.49597 15.194 5.05023C16.5599 5.60449 17.7322 6.54899 18.5645 7.76572C19.3967 8.98244 19.8519 10.4174 19.8732 11.8914C19.8945 13.3654 19.481 14.8129 18.6843 16.0532C17.8877 17.2935 16.7431 18.2715 15.3938 18.8651C14.0445 19.4586 12.5501 19.6413 11.0975 19.3904C9.6449 19.1396 8.29844 18.4661 7.22636 17.4544C7.15471 17.3867 7.07042 17.3337 6.97831 17.2986C6.8862 17.2635 6.78807 17.2468 6.68952 17.2496C6.59098 17.2524 6.49394 17.2745 6.40397 17.3148C6.31399 17.3551 6.23282 17.4127 6.16511 17.4844C6.0974 17.556 6.04446 17.6403 6.00932 17.7324C5.97419 17.8245 5.95753 17.9227 5.96032 18.0212C5.96311 18.1198 5.98527 18.2168 6.02556 18.3068C6.06585 18.3968 6.12346 18.4779 6.19511 18.5456C7.26334 19.5537 8.56206 20.285 9.97792 20.6757C11.3938 21.0664 12.8837 21.1047 14.3178 20.7872C15.7518 20.4696 17.0864 19.8059 18.2049 18.854C19.3235 17.9021 20.1921 16.6909 20.7349 15.3261C21.2777 13.9613 21.4782 12.4844 21.319 11.0243C21.1597 9.56413 20.6456 8.16517 19.8213 6.94946C18.9971 5.73375 17.8878 4.73825 16.5904 4.04982C15.2929 3.3614 13.8467 3.00098 12.3779 3.00003Z" fill="#1A1A1A" stroke="#1A1A1A" stroke-width="0.5"/>
</svg>
