<svg width="10" height="11" viewBox="0 0 10 11" fill="none" xmlns="http://www.w3.org/2000/svg">
  <path d="M0 5.21484C0 3.4375 0.9375 1.79688 2.5 0.898438C4.04297 0 5.9375 0 7.5 0.898438C9.04297 1.79688 10 3.4375 10 5.21484C10 7.01172 9.04297 8.65234 7.5 9.55078C5.9375 10.4492 4.04297 10.4492 2.5 9.55078C0.9375 8.65234 0 7.01172 0 5.21484ZM6.25 7.08984C6.25 6.58203 5.91797 6.13281 5.46875 5.9375V1.93359C5.46875 1.67969 5.25391 1.46484 5 1.46484C4.72656 1.46484 4.53125 1.67969 4.53125 1.93359V5.9375C4.0625 6.13281 3.75 6.58203 3.75 7.08984C3.75 7.79297 4.29688 8.33984 5 8.33984C5.68359 8.33984 6.25 7.79297 6.25 7.08984ZM2.8125 3.65234C3.14453 3.65234 3.4375 3.37891 3.4375 3.02734C3.4375 2.69531 3.14453 2.40234 2.8125 2.40234C2.46094 2.40234 2.1875 2.69531 2.1875 3.02734C2.1875 3.37891 2.46094 3.65234 2.8125 3.65234ZM2.5 5.21484C2.5 4.88281 2.20703 4.58984 1.875 4.58984C1.52344 4.58984 1.25 4.88281 1.25 5.21484C1.25 5.56641 1.52344 5.83984 1.875 5.83984C2.20703 5.83984 2.5 5.56641 2.5 5.21484ZM8.125 5.83984C8.45703 5.83984 8.75 5.56641 8.75 5.21484C8.75 4.88281 8.45703 4.58984 8.125 4.58984C7.77344 4.58984 7.5 4.88281 7.5 5.21484C7.5 5.56641 7.77344 5.83984 8.125 5.83984ZM7.8125 3.02734C7.8125 2.69531 7.51953 2.40234 7.1875 2.40234C6.83594 2.40234 6.5625 2.69531 6.5625 3.02734C6.5625 3.37891 6.83594 3.65234 7.1875 3.65234C7.51953 3.65234 7.8125 3.37891 7.8125 3.02734Z"
   fill="#2563eb"/>
</svg>

