<svg width="24" height="24" viewBox="0 0 24 24" fill="none" xmlns="http://www.w3.org/2000/svg">
<path d="M21.0002 4.50171V14.2517C21.0002 14.6495 20.8422 15.0311 20.5609 15.3124C20.2796 15.5937 19.8981 15.7517 19.5002 15.7517H9.31056L10.2809 16.7211C10.3506 16.7908 10.4058 16.8735 10.4435 16.9645C10.4813 17.0556 10.5007 17.1532 10.5007 17.2517C10.5007 17.3503 10.4813 17.4478 10.4435 17.5389C10.4058 17.6299 10.3506 17.7127 10.2809 17.7823C10.2112 17.852 10.1285 17.9073 10.0374 17.945C9.94637 17.9827 9.84879 18.0021 9.75024 18.0021C9.6517 18.0021 9.55412 17.9827 9.46307 17.945C9.37203 17.9073 9.2893 17.852 9.21962 17.7823L6.96962 15.5323C6.89989 15.4627 6.84457 15.38 6.80682 15.2889C6.76908 15.1979 6.74965 15.1003 6.74965 15.0017C6.74965 14.9031 6.76908 14.8056 6.80682 14.7145C6.84457 14.6235 6.89989 14.5407 6.96962 14.4711L9.21962 12.2211C9.36035 12.0804 9.55122 12.0013 9.75024 12.0013C9.94927 12.0013 10.1401 12.0804 10.2809 12.2211C10.4216 12.3618 10.5007 12.5527 10.5007 12.7517C10.5007 12.9507 10.4216 13.1416 10.2809 13.2823L9.31056 14.2517H19.5002V4.50171H9.00024V5.25171C9.00024 5.45062 8.92123 5.64139 8.78057 5.78204C8.63992 5.92269 8.44916 6.00171 8.25024 6.00171C8.05133 6.00171 7.86057 5.92269 7.71991 5.78204C7.57926 5.64139 7.50024 5.45062 7.50024 5.25171V4.50171C7.50024 4.10388 7.65828 3.72235 7.93958 3.44105C8.22089 3.15974 8.60242 3.00171 9.00024 3.00171H19.5002C19.8981 3.00171 20.2796 3.15974 20.5609 3.44105C20.8422 3.72235 21.0002 4.10388 21.0002 4.50171ZM15.7502 18.0017C15.5513 18.0017 15.3606 18.0807 15.2199 18.2214C15.0793 18.362 15.0002 18.5528 15.0002 18.7517V19.5017H4.50024V9.75171H14.6899L13.7196 10.7211C13.5789 10.8618 13.4998 11.0527 13.4998 11.2517C13.4998 11.4507 13.5789 11.6416 13.7196 11.7823C13.8603 11.9231 14.0512 12.0021 14.2502 12.0021C14.4493 12.0021 14.6401 11.9231 14.7809 11.7823L17.0309 9.53233C17.1006 9.46268 17.1559 9.37996 17.1937 9.28891C17.2314 9.19787 17.2508 9.10027 17.2508 9.00171C17.2508 8.90315 17.2314 8.80555 17.1937 8.7145C17.1559 8.62346 17.1006 8.54074 17.0309 8.47108L14.7809 6.22108C14.6401 6.08035 14.4493 6.00129 14.2502 6.00129C14.0512 6.00129 13.8603 6.08035 13.7196 6.22108C13.5789 6.36181 13.4998 6.55269 13.4998 6.75171C13.4998 6.95073 13.5789 7.1416 13.7196 7.28233L14.6899 8.25171H4.50024C4.10242 8.25171 3.72089 8.40974 3.43958 8.69105C3.15828 8.97235 3.00024 9.35388 3.00024 9.75171V19.5017C3.00024 19.8995 3.15828 20.2811 3.43958 20.5624C3.72089 20.8437 4.10242 21.0017 4.50024 21.0017H15.0002C15.3981 21.0017 15.7796 20.8437 16.0609 20.5624C16.3422 20.2811 16.5002 19.8995 16.5002 19.5017V18.7517C16.5002 18.5528 16.4212 18.362 16.2806 18.2214C16.1399 18.0807 15.9492 18.0017 15.7502 18.0017Z" fill="#1A1A1A" stroke="#1A1A1A" stroke-width="0.2"/>
</svg>
